<svg xmlns="http://www.w3.org/2000/svg" width="1143.91" height="472" viewBox="0 0 1143.91 472"><defs><style>.a{fill:#e8dfda;}</style></defs><rect class="a" width="192" height="40"/><rect class="a" y="72" width="192" height="40"/><rect class="a" y="144" width="192" height="40"/><rect class="a" y="432" width="192" height="40"/><path class="a" d="M96,252a56,56,0,1,1-56,56,56.06,56.06,0,0,1,56-56m0-40a96,96,0,1,0,96,96,96,96,0,0,0-96-96Z"/><path class="a" d="M375.66,396.82l-5.13-19.54H308.22l-5.13,19.54H260.33L308.47,218.2h61.82l48.14,178.62Zm-57.91-54.49H361l-21.75-80.64Z"/><path class="a" d="M601.93,360.66v36.41H507.86V218.2h41V360.66Z"/><path class="a" d="M667.66,253.63v34.21h50.83v35.43H667.66v38.37h61.58v35.43H626.61V218.2H729.24v35.43Z"/><path class="a" d="M848.36,292.48a58.36,58.36,0,0,1,17.84,12,55.82,55.82,0,0,1,12.1,17.71,56.37,56.37,0,0,1,0,43.62,55.5,55.5,0,0,1-12.1,17.84,58.15,58.15,0,0,1-17.84,12,54.4,54.4,0,0,1-21.87,4.4H814a54.4,54.4,0,0,1-21.87-4.4,55.91,55.91,0,0,1-29.69-29.81,54.66,54.66,0,0,1-4.4-21.75H795.7A17.83,17.83,0,0,0,801,357,17.5,17.5,0,0,0,814,362.37h12.46a17.94,17.94,0,0,0,13.2-5.38A17.65,17.65,0,0,0,845.06,344a18.36,18.36,0,0,0-18.57-18.57H814a58.61,58.61,0,0,1-21.87-4,55.81,55.81,0,0,1-17.72-11.12A51.66,51.66,0,0,1,758.07,272a54.66,54.66,0,0,1,4.4-21.75,55.91,55.91,0,0,1,29.69-29.81A54.4,54.4,0,0,1,814,216h12.46a54.4,54.4,0,0,1,21.87,4.4,58.15,58.15,0,0,1,17.84,12,55.5,55.5,0,0,1,12.1,17.84A54.65,54.65,0,0,1,882.69,272H845.06A17.65,17.65,0,0,0,839.69,259a18,18,0,0,0-13.2-5.38H814A17.53,17.53,0,0,0,801,259,17.83,17.83,0,0,0,795.7,272q0,7.82,5.26,12A20.39,20.39,0,0,0,814,288.08h12.46A54.4,54.4,0,0,1,848.36,292.48Z"/><path class="a" d="M1016.6,254.61H978V397.07h-41V254.61H898.33V218.2H1016.6Z"/><path class="a" d="M1082.33,253.63v34.21h50.83v35.43h-50.83v38.37h61.58v35.43H1041.28V218.2h102.63v35.43Z"/></svg>