<?xml version="1.0" encoding="UTF-8"?>
<svg id="Layer_2" data-name="Layer 2" xmlns="http://www.w3.org/2000/svg" viewBox="0 0 1143.91 472">
  <defs>
    <style>
      .cls-1 {
        fill: #3d5947;
      }
    </style>
  </defs>
  <g id="Layer_1-2" data-name="Layer 1">
    <rect class="cls-1" width="192" height="40"/>
    <rect class="cls-1" y="72" width="192" height="40"/>
    <rect class="cls-1" y="144" width="192" height="40"/>
    <rect class="cls-1" y="432" width="192" height="40"/>
    <path class="cls-1" d="M96,252c30.93,0,56,25.07,56,56s-25.07,56-56,56-56-25.07-56-56c.03-30.91,25.09-55.97,56-56m0-40C42.98,212,0,254.98,0,308s42.98,96,96,96,96-42.98,96-96-42.98-96-96-96Z"/>
    <path class="cls-1" d="M375.66,396.82l-5.13-19.54h-62.31l-5.13,19.54h-42.76l48.14-178.62h61.82l48.14,178.62h-42.77Zm-57.91-54.49h43.25l-21.75-80.64-21.5,80.64Z"/>
    <path class="cls-1" d="M601.93,360.66v36.41h-94.07V218.2h41v142.46h53.07Z"/>
    <path class="cls-1" d="M667.66,253.63v34.21h50.83v35.43h-50.83v38.37h61.58v35.43h-102.63V218.2h102.63v35.43h-61.58Z"/>
    <path class="cls-1" d="M848.36,292.48c6.64,2.86,12.69,6.93,17.84,12,5.14,5.07,9.25,11.08,12.1,17.71,5.85,13.95,5.85,29.67,0,43.62-2.83,6.68-6.94,12.74-12.1,17.84-5.15,5.07-11.2,9.14-17.84,12-6.91,2.96-14.35,4.46-21.87,4.4h-12.49c-7.52,.06-14.96-1.44-21.87-4.4-13.4-5.69-24.05-16.39-29.69-29.81-2.94-6.87-4.44-14.28-4.4-21.75h37.66c-.06,4.84,1.85,9.51,5.3,12.91,3.39,3.53,8.11,5.48,13,5.37h12.46c4.95,.11,9.73-1.84,13.2-5.38,3.52-3.39,5.48-8.1,5.4-12.99,.12-10.14-8.01-18.45-18.15-18.57-.14,0-.28,0-.42,0h-12.49c-7.48,.07-14.9-1.28-21.87-4-6.55-2.56-12.57-6.33-17.72-11.12-10.58-9.91-16.51-23.81-16.34-38.31-.04-7.47,1.46-14.88,4.4-21.75,5.64-13.42,16.29-24.12,29.69-29.81,6.9-2.97,14.33-4.48,21.84-4.44h12.46c7.52-.06,14.96,1.44,21.87,4.4,6.64,2.86,12.69,6.93,17.84,12,5.16,5.1,9.27,11.16,12.1,17.84,2.95,6.87,4.45,14.28,4.42,21.76h-37.63c.09-4.89-1.86-9.6-5.37-13-3.47-3.53-8.25-5.48-13.2-5.38h-12.49c-4.89-.1-9.61,1.85-13,5.38-3.47,3.43-5.39,8.12-5.3,13,0,5.21,1.75,9.21,5.26,12,3.75,2.82,8.35,4.26,13.04,4.08h12.46c7.53-.06,14.98,1.43,21.9,4.4Z"/>
    <path class="cls-1" d="M1016.6,254.61h-38.6v142.46h-41V254.61h-38.67v-36.41h118.27v36.41Z"/>
    <path class="cls-1" d="M1082.33,253.63v34.21h50.83v35.43h-50.83v38.37h61.58v35.43h-102.63V218.2h102.63v35.43h-61.58Z"/>
  </g>
</svg>