<svg xmlns="http://www.w3.org/2000/svg" viewBox="0 0 160.44 189.22"><g data-name="Layer 2"><path d="M160.3 71.53a82.8 82.8 0 00-2.52-17.92c-3.64-14-10.57-26.15-21.47-35.82C122.93 5.93 107.11.31 89.34 0a82 82 0 00-30 5.36A99.48 99.48 0 00.44 66.47 7.62 7.62 0 000 68.74a2.08 2.08 0 001.68 2.2A5.86 5.86 0 004 71c.41-.06.53.07.68.4a35.49 35.49 0 011.92 5.51 39.37 39.37 0 011.09 12.42A67.43 67.43 0 014.89 104a5.34 5.34 0 01-.09.53 23.45 23.45 0 00-.87 7.31 9.79 9.79 0 005.51 8.61c1.88 1 3.84 1.8 5.75 2.72 4.57 2.16 6.94 6 8.24 10.7a1.13 1.13 0 01-.17 1 106.26 106.26 0 01-8 11.75 113.63 113.63 0 00-10.12 14 19.88 19.88 0 00-3 8.42 3.78 3.78 0 001.24 3.58 53.09 53.09 0 0012.37 7.08 125.11 125.11 0 0021.78 6.17 125.47 125.47 0 0013.78 1.93c3 .28 6 .31 8.92.76a.44.44 0 00.16.06 10 10 0 002 .22 19.71 19.71 0 004.42.39c.74-.07 1.52.17 2.3.08a61.34 61.34 0 008.11-.69 36.9 36.9 0 008.09-2.45 9.25 9.25 0 004.45-4c1.41-2.42 2.64-4.92 4-7.37A27.78 27.78 0 0097 160.5a70.82 70.82 0 01.5-10.5 17.89 17.89 0 013.22-8.71 1.78 1.78 0 01.6-.59 21.69 21.69 0 016.62-2.11c3.46-.4 6.86-1.05 10.31-1.49 3.8-.48 7.6-1 11.4-1.51a18.32 18.32 0 008.34-3.14 26.68 26.68 0 007.81-8.26A106 106 0 00155.94 102a96.71 96.71 0 004.36-25.31h.14v-5.16a.33.33 0 00-.14 0z" fill="red" data-name="Layer 1"/></g></svg>